solid OpenSCAD_Model
  facet normal 0 0 -1
    outer loop
      vertex -7.5 0 0
      vertex -7.33611 1.55934 0
      vertex -7.33611 -1.55934 0
    endloop
  endfacet
  facet normal 0 0 -1
    outer loop
      vertex -7.33611 -1.55934 0
      vertex -7.33611 1.55934 0
      vertex -6.85159 3.05052 0
    endloop
  endfacet
  facet normal 0 0 -1
    outer loop
      vertex -7.33611 -1.55934 0
      vertex -6.85159 3.05052 0
      vertex -6.06763 4.40839 0
    endloop
  endfacet
  facet normal 0 0 -1
    outer loop
      vertex -7.33611 -1.55934 0
      vertex -6.06763 4.40839 0
      vertex -5.01848 5.57359 0
    endloop
  endfacet
  facet normal 0 0 -1
    outer loop
      vertex -7.33611 -1.55934 0
      vertex -5.01848 5.57359 0
      vertex -3.75 6.49519 0
    endloop
  endfacet
  facet normal 0 0 -1
    outer loop
      vertex -7.33611 -1.55934 0
      vertex -3.75 6.49519 0
      vertex -2.31763 7.13292 0
    endloop
  endfacet
  facet normal 0 0 -1
    outer loop
      vertex -7.33611 -1.55934 0
      vertex -2.31763 7.13292 0
      vertex -0.783963 7.45891 0
    endloop
  endfacet
  facet normal 0 0 -1
    outer loop
      vertex -7.33611 -1.55934 0
      vertex -0.783963 7.45891 0
      vertex 0.783963 7.45891 0
    endloop
  endfacet
  facet normal 0 0 -1
    outer loop
      vertex -7.33611 -1.55934 0
      vertex 0.783963 7.45891 0
      vertex 2.31763 7.13292 0
    endloop
  endfacet
  facet normal 0 0 -1
    outer loop
      vertex -7.33611 -1.55934 0
      vertex 2.31763 7.13292 0
      vertex 3.75 6.49519 0
    endloop
  endfacet
  facet normal 0 0 -1
    outer loop
      vertex -2.37924 2 0
      vertex 3.75 6.49519 0
      vertex 5.01848 5.57359 0
    endloop
  endfacet
  facet normal 0 0 -1
    outer loop
      vertex -2.37924 2 0
      vertex 6.06763 4.40839 0
      vertex 2.37924 2 0
    endloop
  endfacet
  facet normal 0 0 -1
    outer loop
      vertex 2.37924 2 0
      vertex 6.06763 4.40839 0
      vertex 6.85159 3.05052 0
    endloop
  endfacet
  facet normal 0 0 -1
    outer loop
      vertex 2.77633 1.60291 0
      vertex 6.85159 3.05052 0
      vertex 7.33611 1.55934 0
    endloop
  endfacet
  facet normal 0 0 -1
    outer loop
      vertex 3.20583 0 0
      vertex 7.33611 1.55934 0
      vertex 7.5 0 0
    endloop
  endfacet
  facet normal 0 0 -1
    outer loop
      vertex 2.77633 -1.60291 0
      vertex 7.33611 -1.55934 0
      vertex 6.85159 -3.05052 0
    endloop
  endfacet
  facet normal 0 0 -1
    outer loop
      vertex 0 -3.20583 0
      vertex 6.06763 -4.40839 0
      vertex 5.01848 -5.57359 0
    endloop
  endfacet
  facet normal 0 0 -1
    outer loop
      vertex -7.33611 -1.55934 0
      vertex 5.01848 -5.57359 0
      vertex 3.75 -6.49519 0
    endloop
  endfacet
  facet normal 0 0 -1
    outer loop
      vertex -7.33611 -1.55934 0
      vertex 3.75 -6.49519 0
      vertex 2.31763 -7.13292 0
    endloop
  endfacet
  facet normal 0 0 -1
    outer loop
      vertex -7.33611 -1.55934 0
      vertex 2.31763 -7.13292 0
      vertex 0.783963 -7.45891 0
    endloop
  endfacet
  facet normal 0 0 -1
    outer loop
      vertex -7.33611 -1.55934 0
      vertex 0.783963 -7.45891 0
      vertex -0.783963 -7.45891 0
    endloop
  endfacet
  facet normal 0 0 -1
    outer loop
      vertex -7.33611 -1.55934 0
      vertex -0.783963 -7.45891 0
      vertex -2.31763 -7.13292 0
    endloop
  endfacet
  facet normal 0 0 -1
    outer loop
      vertex -7.33611 -1.55934 0
      vertex -2.31763 -7.13292 0
      vertex -3.75 -6.49519 0
    endloop
  endfacet
  facet normal 0 0 -1
    outer loop
      vertex -7.33611 -1.55934 0
      vertex -3.75 -6.49519 0
      vertex -5.01848 -5.57359 0
    endloop
  endfacet
  facet normal 0 0 -1
    outer loop
      vertex -7.33611 -1.55934 0
      vertex -5.01848 -5.57359 0
      vertex -6.06763 -4.40839 0
    endloop
  endfacet
  facet normal 0 0 -1
    outer loop
      vertex -7.33611 -1.55934 0
      vertex -6.06763 -4.40839 0
      vertex -6.85159 -3.05052 0
    endloop
  endfacet
  facet normal 0 0 -1
    outer loop
      vertex -2.77633 -1.60291 0
      vertex -7.33611 -1.55934 0
      vertex -3.20583 0 0
    endloop
  endfacet
  facet normal 0 0 -1
    outer loop
      vertex -1.60291 -2.77633 0
      vertex -7.33611 -1.55934 0
      vertex -2.77633 -1.60291 0
    endloop
  endfacet
  facet normal 0 0 -1
    outer loop
      vertex 2.77633 -1.60291 0
      vertex 6.85159 -3.05052 0
      vertex 1.60291 -2.77633 0
    endloop
  endfacet
  facet normal 0 0 -1
    outer loop
      vertex 1.60291 -2.77633 0
      vertex 6.06763 -4.40839 0
      vertex 0 -3.20583 0
    endloop
  endfacet
  facet normal 0 0 -1
    outer loop
      vertex 1.60291 -2.77633 0
      vertex 6.85159 -3.05052 0
      vertex 6.06763 -4.40839 0
    endloop
  endfacet
  facet normal 0 0 -1
    outer loop
      vertex -7.33611 -1.55934 0
      vertex 0 -3.20583 0
      vertex 5.01848 -5.57359 0
    endloop
  endfacet
  facet normal 0 0 -1
    outer loop
      vertex 0 -3.20583 0
      vertex -7.33611 -1.55934 0
      vertex -1.60291 -2.77633 0
    endloop
  endfacet
  facet normal 0 0 -1
    outer loop
      vertex 3.20583 0 0
      vertex 7.33611 -1.55934 0
      vertex 2.77633 -1.60291 0
    endloop
  endfacet
  facet normal 0 0 -1
    outer loop
      vertex -2.37924 2 0
      vertex 5.01848 5.57359 0
      vertex 6.06763 4.40839 0
    endloop
  endfacet
  facet normal 0 0 -1
    outer loop
      vertex -7.33611 -1.55934 0
      vertex 3.75 6.49519 0
      vertex -2.37924 2 0
    endloop
  endfacet
  facet normal 0 0 -1
    outer loop
      vertex -7.33611 -1.55934 0
      vertex -2.37924 2 0
      vertex -2.77633 1.60291 0
    endloop
  endfacet
  facet normal 0 0 -1
    outer loop
      vertex 2.37924 2 0
      vertex 6.85159 3.05052 0
      vertex 2.77633 1.60291 0
    endloop
  endfacet
  facet normal 0 0 -1
    outer loop
      vertex -3.20583 0 0
      vertex -7.33611 -1.55934 0
      vertex -2.77633 1.60291 0
    endloop
  endfacet
  facet normal 0 0 -1
    outer loop
      vertex 3.20583 0 0
      vertex 7.5 0 0
      vertex 7.33611 -1.55934 0
    endloop
  endfacet
  facet normal 0 0 -1
    outer loop
      vertex 2.77633 1.60291 0
      vertex 7.33611 1.55934 0
      vertex 3.20583 0 0
    endloop
  endfacet
  facet normal -0.994522 0.104528 0
    outer loop
      vertex -7.5 0 0
      vertex -7.5 0 24
      vertex -7.33611 1.55934 0
    endloop
  endfacet
  facet normal -0.994522 0.104528 0
    outer loop
      vertex -7.33611 1.55934 0
      vertex -7.5 0 24
      vertex -7.33611 1.55934 24
    endloop
  endfacet
  facet normal -0.994522 -0.104528 0
    outer loop
      vertex -7.5 0 0
      vertex -7.33611 -1.55934 0
      vertex -7.5 0 24
    endloop
  endfacet
  facet normal -0.994522 -0.104528 0
    outer loop
      vertex -7.5 0 24
      vertex -7.33611 -1.55934 0
      vertex -7.33611 -1.55934 24
    endloop
  endfacet
  facet normal -0.951057 -0.309017 0
    outer loop
      vertex -7.33611 -1.55934 0
      vertex -6.85159 -3.05052 0
      vertex -7.33611 -1.55934 24
    endloop
  endfacet
  facet normal -0.951057 -0.309017 0
    outer loop
      vertex -7.33611 -1.55934 24
      vertex -6.85159 -3.05052 0
      vertex -6.85159 -3.05052 24
    endloop
  endfacet
  facet normal -0.866025 -0.5 0
    outer loop
      vertex -6.85159 -3.05052 0
      vertex -6.06763 -4.40839 0
      vertex -6.85159 -3.05052 24
    endloop
  endfacet
  facet normal -0.866025 -0.5 0
    outer loop
      vertex -6.85159 -3.05052 24
      vertex -6.06763 -4.40839 0
      vertex -6.06763 -4.40839 24
    endloop
  endfacet
  facet normal -0.743145 -0.66913 0
    outer loop
      vertex -6.06763 -4.40839 0
      vertex -5.01848 -5.57359 0
      vertex -6.06763 -4.40839 24
    endloop
  endfacet
  facet normal -0.743145 -0.66913 0
    outer loop
      vertex -6.06763 -4.40839 24
      vertex -5.01848 -5.57359 0
      vertex -5.01848 -5.57359 24
    endloop
  endfacet
  facet normal -0.587785 -0.809017 0
    outer loop
      vertex -5.01848 -5.57359 24
      vertex -5.01848 -5.57359 0
      vertex -3.75 -6.49519 0
    endloop
  endfacet
  facet normal -0.587785 -0.809017 0
    outer loop
      vertex -3.75 -6.49519 24
      vertex -5.01848 -5.57359 24
      vertex -3.75 -6.49519 0
    endloop
  endfacet
  facet normal -0.406736 -0.913546 0
    outer loop
      vertex -3.75 -6.49519 24
      vertex -3.75 -6.49519 0
      vertex -2.31763 -7.13292 0
    endloop
  endfacet
  facet normal -0.406736 -0.913546 0
    outer loop
      vertex -2.31763 -7.13292 24
      vertex -3.75 -6.49519 24
      vertex -2.31763 -7.13292 0
    endloop
  endfacet
  facet normal -0.207911 -0.978148 0
    outer loop
      vertex -2.31763 -7.13292 24
      vertex -2.31763 -7.13292 0
      vertex -0.783963 -7.45891 0
    endloop
  endfacet
  facet normal -0.207911 -0.978148 0
    outer loop
      vertex -0.783963 -7.45891 24
      vertex -2.31763 -7.13292 24
      vertex -0.783963 -7.45891 0
    endloop
  endfacet
  facet normal 0 -1 0
    outer loop
      vertex -0.783963 -7.45891 24
      vertex -0.783963 -7.45891 0
      vertex 0.783963 -7.45891 0
    endloop
  endfacet
  facet normal 0 -1 0
    outer loop
      vertex 0.783963 -7.45891 24
      vertex -0.783963 -7.45891 24
      vertex 0.783963 -7.45891 0
    endloop
  endfacet
  facet normal 0.207911 -0.978148 0
    outer loop
      vertex 0.783963 -7.45891 24
      vertex 0.783963 -7.45891 0
      vertex 2.31763 -7.13292 0
    endloop
  endfacet
  facet normal 0.207911 -0.978148 0
    outer loop
      vertex 2.31763 -7.13292 24
      vertex 0.783963 -7.45891 24
      vertex 2.31763 -7.13292 0
    endloop
  endfacet
  facet normal 0.406736 -0.913546 0
    outer loop
      vertex 2.31763 -7.13292 24
      vertex 2.31763 -7.13292 0
      vertex 3.75 -6.49519 0
    endloop
  endfacet
  facet normal 0.406736 -0.913546 0
    outer loop
      vertex 3.75 -6.49519 24
      vertex 2.31763 -7.13292 24
      vertex 3.75 -6.49519 0
    endloop
  endfacet
  facet normal 0.587785 -0.809017 0
    outer loop
      vertex 3.75 -6.49519 24
      vertex 3.75 -6.49519 0
      vertex 5.01848 -5.57359 0
    endloop
  endfacet
  facet normal 0.587785 -0.809017 0
    outer loop
      vertex 5.01848 -5.57359 24
      vertex 3.75 -6.49519 24
      vertex 5.01848 -5.57359 0
    endloop
  endfacet
  facet normal 0.743145 -0.66913 0
    outer loop
      vertex 5.01848 -5.57359 24
      vertex 5.01848 -5.57359 0
      vertex 6.06763 -4.40839 0
    endloop
  endfacet
  facet normal 0.743145 -0.66913 0
    outer loop
      vertex 6.06763 -4.40839 24
      vertex 5.01848 -5.57359 24
      vertex 6.06763 -4.40839 0
    endloop
  endfacet
  facet normal 0.866025 -0.5 0
    outer loop
      vertex 6.06763 -4.40839 24
      vertex 6.06763 -4.40839 0
      vertex 6.85159 -3.05052 0
    endloop
  endfacet
  facet normal 0.866025 -0.5 0
    outer loop
      vertex 6.85159 -3.05052 24
      vertex 6.06763 -4.40839 24
      vertex 6.85159 -3.05052 0
    endloop
  endfacet
  facet normal 0.951057 -0.309017 0
    outer loop
      vertex 6.85159 -3.05052 24
      vertex 6.85159 -3.05052 0
      vertex 7.33611 -1.55934 0
    endloop
  endfacet
  facet normal 0.951057 -0.309017 0
    outer loop
      vertex 7.33611 -1.55934 24
      vertex 6.85159 -3.05052 24
      vertex 7.33611 -1.55934 0
    endloop
  endfacet
  facet normal 0.994522 -0.104528 0
    outer loop
      vertex 7.33611 -1.55934 24
      vertex 7.33611 -1.55934 0
      vertex 7.5 0 0
    endloop
  endfacet
  facet normal 0.994522 -0.104528 0
    outer loop
      vertex 7.5 0 24
      vertex 7.33611 -1.55934 24
      vertex 7.5 0 0
    endloop
  endfacet
  facet normal 0.994522 0.104528 0
    outer loop
      vertex 7.5 0 0
      vertex 7.33611 1.55934 0
      vertex 7.33611 1.55934 24
    endloop
  endfacet
  facet normal 0.994522 0.104528 0
    outer loop
      vertex 7.5 0 24
      vertex 7.5 0 0
      vertex 7.33611 1.55934 24
    endloop
  endfacet
  facet normal 0.951057 0.309017 0
    outer loop
      vertex 7.33611 1.55934 0
      vertex 6.85159 3.05052 0
      vertex 6.85159 3.05052 24
    endloop
  endfacet
  facet normal 0.951057 0.309017 0
    outer loop
      vertex 7.33611 1.55934 24
      vertex 7.33611 1.55934 0
      vertex 6.85159 3.05052 24
    endloop
  endfacet
  facet normal 0.866025 0.5 0
    outer loop
      vertex 6.85159 3.05052 0
      vertex 6.06763 4.40839 0
      vertex 6.06763 4.40839 24
    endloop
  endfacet
  facet normal 0.866025 0.5 0
    outer loop
      vertex 6.85159 3.05052 24
      vertex 6.85159 3.05052 0
      vertex 6.06763 4.40839 24
    endloop
  endfacet
  facet normal 0.743145 0.66913 0
    outer loop
      vertex 6.06763 4.40839 0
      vertex 5.01848 5.57359 0
      vertex 5.01848 5.57359 24
    endloop
  endfacet
  facet normal 0.743145 0.66913 0
    outer loop
      vertex 6.06763 4.40839 24
      vertex 6.06763 4.40839 0
      vertex 5.01848 5.57359 24
    endloop
  endfacet
  facet normal 0.587785 0.809017 0
    outer loop
      vertex 3.75 6.49519 0
      vertex 3.75 6.49519 24
      vertex 5.01848 5.57359 0
    endloop
  endfacet
  facet normal 0.587785 0.809017 0
    outer loop
      vertex 5.01848 5.57359 0
      vertex 3.75 6.49519 24
      vertex 5.01848 5.57359 24
    endloop
  endfacet
  facet normal 0.406736 0.913546 0
    outer loop
      vertex 2.31763 7.13292 0
      vertex 2.31763 7.13292 24
      vertex 3.75 6.49519 0
    endloop
  endfacet
  facet normal 0.406736 0.913546 0
    outer loop
      vertex 3.75 6.49519 0
      vertex 2.31763 7.13292 24
      vertex 3.75 6.49519 24
    endloop
  endfacet
  facet normal 0.207911 0.978148 0
    outer loop
      vertex 0.783963 7.45891 0
      vertex 0.783963 7.45891 3.9715
      vertex 2.31763 7.13292 0
    endloop
  endfacet
  facet normal 0.207911 0.978148 0
    outer loop
      vertex 2.31763 7.13292 0
      vertex 0.783963 7.45891 3.9715
      vertex 0.86987 7.44065 4.03391
    endloop
  endfacet
  facet normal 0.207911 0.978148 0
    outer loop
      vertex 2.31763 7.13292 0
      vertex 0.86987 7.44065 4.03391
      vertex 1.05172 7.402 4.23588
    endloop
  endfacet
  facet normal 0.207911 0.978148 0
    outer loop
      vertex 1.05172 7.402 4.23588
      vertex 1.18761 7.37312 4.47124
      vertex 2.31763 7.13292 0
    endloop
  endfacet
  facet normal 0.207911 0.978148 0
    outer loop
      vertex 1.18761 7.37312 4.47124
      vertex 1.27159 7.35527 4.72972
      vertex 2.31763 7.13292 0
    endloop
  endfacet
  facet normal 0.207911 0.978148 0
    outer loop
      vertex 1.27159 7.35527 4.72972
      vertex 1.3 7.34923 5
      vertex 2.31763 7.13292 0
    endloop
  endfacet
  facet normal 0.207911 0.978148 0
    outer loop
      vertex 1.3 7.34923 5
      vertex 1.27159 7.35527 5.27029
      vertex 2.31763 7.13292 0
    endloop
  endfacet
  facet normal 0.207911 0.978148 0
    outer loop
      vertex 1.27159 7.35527 5.27029
      vertex 0.783963 7.45891 24
      vertex 2.31763 7.13292 0
    endloop
  endfacet
  facet normal 0.207911 0.978148 0
    outer loop
      vertex 1.18761 7.37312 5.52876
      vertex 0.783963 7.45891 24
      vertex 1.27159 7.35527 5.27029
    endloop
  endfacet
  facet normal 0.207911 0.978148 0
    outer loop
      vertex 1.05172 7.402 5.76412
      vertex 0.783963 7.45891 24
      vertex 1.18761 7.37312 5.52876
    endloop
  endfacet
  facet normal 0.207911 0.978148 0
    outer loop
      vertex 0.86987 7.44065 5.96609
      vertex 0.783963 7.45891 6.0285
      vertex 0.783963 7.45891 24
    endloop
  endfacet
  facet normal 0.207911 0.978148 0
    outer loop
      vertex 0.86987 7.44065 5.96609
      vertex 0.783963 7.45891 24
      vertex 1.05172 7.402 5.76412
    endloop
  endfacet
  facet normal 0.207911 0.978148 0
    outer loop
      vertex 2.31763 7.13292 0
      vertex 0.783963 7.45891 24
      vertex 2.31763 7.13292 24
    endloop
  endfacet
  facet normal 0 1 0
    outer loop
      vertex -0.783963 7.45891 0
      vertex -0.783963 7.45891 3.9715
      vertex 0.783963 7.45891 0
    endloop
  endfacet
  facet normal 0 1 0
    outer loop
      vertex 0.783963 7.45891 0
      vertex -0.783963 7.45891 3.9715
      vertex -0.65 7.45891 3.87417
    endloop
  endfacet
  facet normal 0 1 0
    outer loop
      vertex 0.783963 7.45891 0
      vertex -0.65 7.45891 3.87417
      vertex -0.401722 7.45891 3.76363
    endloop
  endfacet
  facet normal 0 1 0
    outer loop
      vertex -0.401722 7.45891 3.76363
      vertex -0.135887 7.45891 3.70712
      vertex 0.783963 7.45891 0
    endloop
  endfacet
  facet normal 0 1 0
    outer loop
      vertex -0.135887 7.45891 3.70712
      vertex 0.135887 7.45891 3.70712
      vertex 0.783963 7.45891 0
    endloop
  endfacet
  facet normal 0 1 0
    outer loop
      vertex 0.135887 7.45891 3.70712
      vertex 0.401722 7.45891 3.76363
      vertex 0.783963 7.45891 0
    endloop
  endfacet
  facet normal 0 1 0
    outer loop
      vertex 0.401722 7.45891 3.76363
      vertex 0.65 7.45891 3.87417
      vertex 0.783963 7.45891 0
    endloop
  endfacet
  facet normal 0 1 0
    outer loop
      vertex 0.65 7.45891 3.87417
      vertex 0.783963 7.45891 3.9715
      vertex 0.783963 7.45891 0
    endloop
  endfacet
  facet normal -0.207911 0.978148 0
    outer loop
      vertex -1.27159 7.35527 4.72972
      vertex -2.31763 7.13292 0
      vertex -1.3 7.34923 5
    endloop
  endfacet
  facet normal -0.207911 0.978148 0
    outer loop
      vertex -0.783963 7.45891 6.0285
      vertex -2.31763 7.13292 24
      vertex -0.783963 7.45891 24
    endloop
  endfacet
  facet normal -0.207911 0.978148 0
    outer loop
      vertex -0.86987 7.44065 5.96609
      vertex -2.31763 7.13292 24
      vertex -0.783963 7.45891 6.0285
    endloop
  endfacet
  facet normal -0.207911 0.978148 0
    outer loop
      vertex -1.05172 7.402 5.76412
      vertex -2.31763 7.13292 24
      vertex -0.86987 7.44065 5.96609
    endloop
  endfacet
  facet normal -0.207911 0.978148 0
    outer loop
      vertex -1.27159 7.35527 5.27029
      vertex -2.31763 7.13292 24
      vertex -1.18761 7.37312 5.52876
    endloop
  endfacet
  facet normal -0.207911 0.978148 0
    outer loop
      vertex -2.31763 7.13292 0
      vertex -2.31763 7.13292 24
      vertex -1.27159 7.35527 5.27029
    endloop
  endfacet
  facet normal -0.207911 0.978148 0
    outer loop
      vertex -2.31763 7.13292 0
      vertex -1.27159 7.35527 5.27029
      vertex -1.3 7.34923 5
    endloop
  endfacet
  facet normal -0.207911 0.978148 0
    outer loop
      vertex -1.05172 7.402 4.23588
      vertex -0.783963 7.45891 0
      vertex -1.18761 7.37312 4.47124
    endloop
  endfacet
  facet normal -0.207911 0.978148 0
    outer loop
      vertex -2.31763 7.13292 0
      vertex -1.27159 7.35527 4.72972
      vertex -0.783963 7.45891 0
    endloop
  endfacet
  facet normal -0.207911 0.978148 0
    outer loop
      vertex -1.27159 7.35527 4.72972
      vertex -1.18761 7.37312 4.47124
      vertex -0.783963 7.45891 0
    endloop
  endfacet
  facet normal -0.207911 0.978148 0
    outer loop
      vertex -0.783963 7.45891 3.9715
      vertex -0.783963 7.45891 0
      vertex -0.86987 7.44065 4.03391
    endloop
  endfacet
  facet normal -0.207911 0.978148 0
    outer loop
      vertex -1.18761 7.37312 5.52876
      vertex -2.31763 7.13292 24
      vertex -1.05172 7.402 5.76412
    endloop
  endfacet
  facet normal -0.207911 0.978148 0
    outer loop
      vertex -0.86987 7.44065 4.03391
      vertex -0.783963 7.45891 0
      vertex -1.05172 7.402 4.23588
    endloop
  endfacet
  facet normal -0.406736 0.913546 0
    outer loop
      vertex -3.75 6.49519 0
      vertex -3.75 6.49519 24
      vertex -2.31763 7.13292 0
    endloop
  endfacet
  facet normal -0.406736 0.913546 0
    outer loop
      vertex -2.31763 7.13292 0
      vertex -3.75 6.49519 24
      vertex -2.31763 7.13292 24
    endloop
  endfacet
  facet normal -0.587785 0.809017 0
    outer loop
      vertex -5.01848 5.57359 0
      vertex -5.01848 5.57359 24
      vertex -3.75 6.49519 0
    endloop
  endfacet
  facet normal -0.587785 0.809017 0
    outer loop
      vertex -3.75 6.49519 0
      vertex -5.01848 5.57359 24
      vertex -3.75 6.49519 24
    endloop
  endfacet
  facet normal -0.743145 0.66913 0
    outer loop
      vertex -6.06763 4.40839 0
      vertex -6.06763 4.40839 24
      vertex -5.01848 5.57359 0
    endloop
  endfacet
  facet normal -0.743145 0.66913 0
    outer loop
      vertex -5.01848 5.57359 0
      vertex -6.06763 4.40839 24
      vertex -5.01848 5.57359 24
    endloop
  endfacet
  facet normal -0.866025 0.5 0
    outer loop
      vertex -6.85159 3.05052 0
      vertex -6.85159 3.05052 24
      vertex -6.06763 4.40839 0
    endloop
  endfacet
  facet normal -0.866025 0.5 0
    outer loop
      vertex -6.06763 4.40839 0
      vertex -6.85159 3.05052 24
      vertex -6.06763 4.40839 24
    endloop
  endfacet
  facet normal -0.951057 0.309017 0
    outer loop
      vertex -7.33611 1.55934 0
      vertex -7.33611 1.55934 24
      vertex -6.85159 3.05052 0
    endloop
  endfacet
  facet normal -0.951057 0.309017 0
    outer loop
      vertex -6.85159 3.05052 0
      vertex -7.33611 1.55934 24
      vertex -6.85159 3.05052 24
    endloop
  endfacet
  facet normal 0.965926 -0.258819 0
    outer loop
      vertex -2.77633 1.60291 0
      vertex -2.77633 1.60291 11
      vertex -3.20583 0 11
    endloop
  endfacet
  facet normal 0.965926 -0.258819 0
    outer loop
      vertex -3.20583 0 0
      vertex -2.77633 1.60291 0
      vertex -3.20583 0 11
    endloop
  endfacet
  facet normal 0.965926 0.258819 0
    outer loop
      vertex -3.20583 0 11
      vertex -2.77633 -1.60291 11
      vertex -2.77633 -1.60291 0
    endloop
  endfacet
  facet normal 0.965926 0.258819 0
    outer loop
      vertex -3.20583 0 0
      vertex -3.20583 0 11
      vertex -2.77633 -1.60291 0
    endloop
  endfacet
  facet normal 0.707107 -0.707107 0
    outer loop
      vertex -2.37924 2 0
      vertex -2.37924 2 11
      vertex -2.77633 1.60291 11
    endloop
  endfacet
  facet normal 0.707107 -0.707107 0
    outer loop
      vertex -2.77633 1.60291 0
      vertex -2.37924 2 0
      vertex -2.77633 1.60291 11
    endloop
  endfacet
  facet normal 0 -1 0
    outer loop
      vertex -0.65 2 3.87417
      vertex -2.37924 2 0
      vertex 2.37924 2 0
    endloop
  endfacet
  facet normal 0 -1 0
    outer loop
      vertex -2.37924 2 11
      vertex -2.37924 2 0
      vertex -1.27159 2 4.72971
    endloop
  endfacet
  facet normal 0 -1 0
    outer loop
      vertex -0.401722 2 3.76363
      vertex -0.65 2 3.87417
      vertex 2.37924 2 0
    endloop
  endfacet
  facet normal 0 -1 0
    outer loop
      vertex -2.37924 2 11
      vertex -1.27159 2 4.72971
      vertex -1.3 2 5
    endloop
  endfacet
  facet normal 0 -1 0
    outer loop
      vertex -2.37924 2 11
      vertex -1.3 2 5
      vertex -1.27159 2 5.27029
    endloop
  endfacet
  facet normal 0 -1 0
    outer loop
      vertex -2.37924 2 11
      vertex -1.27159 2 5.27029
      vertex -1.18761 2 5.52876
    endloop
  endfacet
  facet normal 0 -1 0
    outer loop
      vertex 0.135887 2 3.70712
      vertex -0.135887 2 3.70712
      vertex 2.37924 2 0
    endloop
  endfacet
  facet normal 0 -1 0
    outer loop
      vertex -2.37924 2 11
      vertex -1.18761 2 5.52876
      vertex -1.05172 2 5.76412
    endloop
  endfacet
  facet normal 0 -1 0
    outer loop
      vertex -0.135887 2 3.70712
      vertex -0.401722 2 3.76363
      vertex 2.37924 2 0
    endloop
  endfacet
  facet normal 0 -1 0
    outer loop
      vertex -2.37924 2 11
      vertex -1.05172 2 5.76412
      vertex -0.86987 2 5.96609
    endloop
  endfacet
  facet normal 0 -1 0
    outer loop
      vertex -2.37924 2 11
      vertex -0.86987 2 5.96609
      vertex -0.65 2 6.12583
    endloop
  endfacet
  facet normal 0 -1 0
    outer loop
      vertex 1.27159 2 5.27029
      vertex 1.3 2 5
      vertex 2.37924 2 0
    endloop
  endfacet
  facet normal 0 -1 0
    outer loop
      vertex -2.37924 2 11
      vertex -0.65 2 6.12583
      vertex -0.401722 2 6.23637
    endloop
  endfacet
  facet normal 0 -1 0
    outer loop
      vertex 0.401722 2 3.76363
      vertex 0.135887 2 3.70712
      vertex 2.37924 2 0
    endloop
  endfacet
  facet normal 0 -1 0
    outer loop
      vertex 2.37924 2 11
      vertex -2.37924 2 11
      vertex -0.135887 2 6.29288
    endloop
  endfacet
  facet normal 0 -1 0
    outer loop
      vertex 2.37924 2 11
      vertex -0.135887 2 6.29288
      vertex 0.135887 2 6.29288
    endloop
  endfacet
  facet normal 0 -1 0
    outer loop
      vertex 0.86987 2 4.03391
      vertex 0.65 2 3.87417
      vertex 2.37924 2 0
    endloop
  endfacet
  facet normal 0 -1 0
    outer loop
      vertex 2.37924 2 11
      vertex 0.135887 2 6.29288
      vertex 0.401722 2 6.23637
    endloop
  endfacet
  facet normal 0 -1 0
    outer loop
      vertex 2.37924 2 11
      vertex 0.401722 2 6.23637
      vertex 0.65 2 6.12583
    endloop
  endfacet
  facet normal 0 -1 0
    outer loop
      vertex 1.18761 2 4.47124
      vertex 1.05172 2 4.23588
      vertex 2.37924 2 0
    endloop
  endfacet
  facet normal 0 -1 0
    outer loop
      vertex 2.37924 2 11
      vertex 0.65 2 6.12583
      vertex 0.86987 2 5.96609
    endloop
  endfacet
  facet normal 0 -1 0
    outer loop
      vertex 1.27159 2 4.72971
      vertex 1.18761 2 4.47124
      vertex 2.37924 2 0
    endloop
  endfacet
  facet normal 0 -1 0
    outer loop
      vertex 2.37924 2 11
      vertex 0.86987 2 5.96609
      vertex 1.05172 2 5.76412
    endloop
  endfacet
  facet normal 0 -1 0
    outer loop
      vertex 1.3 2 5
      vertex 1.27159 2 4.72971
      vertex 2.37924 2 0
    endloop
  endfacet
  facet normal 0 -1 0
    outer loop
      vertex 2.37924 2 11
      vertex 1.05172 2 5.76412
      vertex 1.18761 2 5.52876
    endloop
  endfacet
  facet normal 0 -1 0
    outer loop
      vertex 2.37924 2 11
      vertex 1.27159 2 5.27029
      vertex 2.37924 2 0
    endloop
  endfacet
  facet normal 0 -1 0
    outer loop
      vertex 2.37924 2 11
      vertex 1.18761 2 5.52876
      vertex 1.27159 2 5.27029
    endloop
  endfacet
  facet normal 0 -1 0
    outer loop
      vertex -0.86987 2 4.03391
      vertex -2.37924 2 0
      vertex -0.65 2 3.87417
    endloop
  endfacet
  facet normal 0 -1 0
    outer loop
      vertex -1.05172 2 4.23588
      vertex -2.37924 2 0
      vertex -0.86987 2 4.03391
    endloop
  endfacet
  facet normal 0 -1 0
    outer loop
      vertex -1.18761 2 4.47124
      vertex -2.37924 2 0
      vertex -1.05172 2 4.23588
    endloop
  endfacet
  facet normal 0 -1 0
    outer loop
      vertex -1.27159 2 4.72971
      vertex -2.37924 2 0
      vertex -1.18761 2 4.47124
    endloop
  endfacet
  facet normal 0 -1 0
    outer loop
      vertex 0.65 2 3.87417
      vertex 0.401722 2 3.76363
      vertex 2.37924 2 0
    endloop
  endfacet
  facet normal 0 -1 0
    outer loop
      vertex -0.401722 2 6.23637
      vertex -0.135887 2 6.29288
      vertex -2.37924 2 11
    endloop
  endfacet
  facet normal 0 -1 0
    outer loop
      vertex 1.05172 2 4.23588
      vertex 0.86987 2 4.03391
      vertex 2.37924 2 0
    endloop
  endfacet
  facet normal -0.707107 -0.707107 0
    outer loop
      vertex 2.77633 1.60291 0
      vertex 2.77633 1.60291 11
      vertex 2.37924 2 11
    endloop
  endfacet
  facet normal -0.707107 -0.707107 0
    outer loop
      vertex 2.37924 2 0
      vertex 2.77633 1.60291 0
      vertex 2.37924 2 11
    endloop
  endfacet
  facet normal -0.965926 -0.258819 0
    outer loop
      vertex 3.20583 0 11
      vertex 2.77633 1.60291 11
      vertex 3.20583 0 0
    endloop
  endfacet
  facet normal -0.965926 -0.258819 0
    outer loop
      vertex 3.20583 0 0
      vertex 2.77633 1.60291 11
      vertex 2.77633 1.60291 0
    endloop
  endfacet
  facet normal -0.965926 0.258819 0
    outer loop
      vertex 3.20583 0 11
      vertex 3.20583 0 0
      vertex 2.77633 -1.60291 11
    endloop
  endfacet
  facet normal -0.965926 0.258819 0
    outer loop
      vertex 2.77633 -1.60291 11
      vertex 3.20583 0 0
      vertex 2.77633 -1.60291 0
    endloop
  endfacet
  facet normal -0.707107 0.707107 0
    outer loop
      vertex 2.77633 -1.60291 11
      vertex 2.77633 -1.60291 0
      vertex 1.60291 -2.77633 11
    endloop
  endfacet
  facet normal -0.707107 0.707107 0
    outer loop
      vertex 1.60291 -2.77633 11
      vertex 2.77633 -1.60291 0
      vertex 1.60291 -2.77633 0
    endloop
  endfacet
  facet normal -0.258819 0.965926 0
    outer loop
      vertex 1.60291 -2.77633 11
      vertex 1.60291 -2.77633 0
      vertex 0 -3.20583 11
    endloop
  endfacet
  facet normal -0.258819 0.965926 0
    outer loop
      vertex 0 -3.20583 11
      vertex 1.60291 -2.77633 0
      vertex 0 -3.20583 0
    endloop
  endfacet
  facet normal 0.258819 0.965926 0
    outer loop
      vertex 0 -3.20583 11
      vertex 0 -3.20583 0
      vertex -1.60291 -2.77633 11
    endloop
  endfacet
  facet normal 0.258819 0.965926 0
    outer loop
      vertex -1.60291 -2.77633 11
      vertex 0 -3.20583 0
      vertex -1.60291 -2.77633 0
    endloop
  endfacet
  facet normal 0.707107 0.707107 0
    outer loop
      vertex -1.60291 -2.77633 11
      vertex -1.60291 -2.77633 0
      vertex -2.77633 -1.60291 11
    endloop
  endfacet
  facet normal 0.707107 0.707107 0
    outer loop
      vertex -2.77633 -1.60291 11
      vertex -1.60291 -2.77633 0
      vertex -2.77633 -1.60291 0
    endloop
  endfacet
  facet normal 0 0 1
    outer loop
      vertex -7.33611 1.55934 24
      vertex -7.5 0 24
      vertex -7.33611 -1.55934 24
    endloop
  endfacet
  facet normal 0 0 1
    outer loop
      vertex -6.06763 -4.40839 24
      vertex -7.33611 1.55934 24
      vertex -6.85159 -3.05052 24
    endloop
  endfacet
  facet normal 0 0 1
    outer loop
      vertex -6.85159 -3.05052 24
      vertex -7.33611 1.55934 24
      vertex -7.33611 -1.55934 24
    endloop
  endfacet
  facet normal 0 0 1
    outer loop
      vertex -5.01848 -5.57359 24
      vertex -7.33611 1.55934 24
      vertex -6.06763 -4.40839 24
    endloop
  endfacet
  facet normal 0 0 1
    outer loop
      vertex -3.75 -6.49519 24
      vertex -7.33611 1.55934 24
      vertex -5.01848 -5.57359 24
    endloop
  endfacet
  facet normal 0 0 1
    outer loop
      vertex -2.31763 -7.13292 24
      vertex -7.33611 1.55934 24
      vertex -3.75 -6.49519 24
    endloop
  endfacet
  facet normal 0 0 1
    outer loop
      vertex -0.783963 -7.45891 24
      vertex -7.33611 1.55934 24
      vertex -2.31763 -7.13292 24
    endloop
  endfacet
  facet normal 0 0 1
    outer loop
      vertex 0.783963 -7.45891 24
      vertex -7.33611 1.55934 24
      vertex -0.783963 -7.45891 24
    endloop
  endfacet
  facet normal 0 0 1
    outer loop
      vertex 2.31763 -7.13292 24
      vertex -7.33611 1.55934 24
      vertex 0.783963 -7.45891 24
    endloop
  endfacet
  facet normal 0 0 1
    outer loop
      vertex 3.75 -6.49519 24
      vertex -7.33611 1.55934 24
      vertex 2.31763 -7.13292 24
    endloop
  endfacet
  facet normal 0 0 1
    outer loop
      vertex 5.01848 -5.57359 24
      vertex -7.33611 1.55934 24
      vertex 3.75 -6.49519 24
    endloop
  endfacet
  facet normal 0 0 1
    outer loop
      vertex -1.5875 -1.5875 24
      vertex -7.33611 1.55934 24
      vertex 5.01848 -5.57359 24
    endloop
  endfacet
  facet normal 0 0 1
    outer loop
      vertex 1.5875 1.5875 24
      vertex 6.85159 -3.05052 24
      vertex 7.33611 -1.55934 24
    endloop
  endfacet
  facet normal 0 0 1
    outer loop
      vertex 1.5875 1.5875 24
      vertex 7.33611 -1.55934 24
      vertex 7.5 0 24
    endloop
  endfacet
  facet normal 0 0 1
    outer loop
      vertex 1.5875 1.5875 24
      vertex 7.5 0 24
      vertex 7.33611 1.55934 24
    endloop
  endfacet
  facet normal 0 0 1
    outer loop
      vertex 6.06763 4.40839 24
      vertex -7.33611 1.55934 24
      vertex 6.85159 3.05052 24
    endloop
  endfacet
  facet normal 0 0 1
    outer loop
      vertex 5.01848 5.57359 24
      vertex -7.33611 1.55934 24
      vertex 6.06763 4.40839 24
    endloop
  endfacet
  facet normal 0 0 1
    outer loop
      vertex 3.75 6.49519 24
      vertex -7.33611 1.55934 24
      vertex 5.01848 5.57359 24
    endloop
  endfacet
  facet normal 0 0 1
    outer loop
      vertex 2.31763 7.13292 24
      vertex -7.33611 1.55934 24
      vertex 3.75 6.49519 24
    endloop
  endfacet
  facet normal 0 0 1
    outer loop
      vertex 0.783963 7.45891 24
      vertex -7.33611 1.55934 24
      vertex 2.31763 7.13292 24
    endloop
  endfacet
  facet normal 0 0 1
    outer loop
      vertex -0.783963 7.45891 24
      vertex -7.33611 1.55934 24
      vertex 0.783963 7.45891 24
    endloop
  endfacet
  facet normal 0 0 1
    outer loop
      vertex -2.31763 7.13292 24
      vertex -7.33611 1.55934 24
      vertex -0.783963 7.45891 24
    endloop
  endfacet
  facet normal 0 0 1
    outer loop
      vertex -3.75 6.49519 24
      vertex -7.33611 1.55934 24
      vertex -2.31763 7.13292 24
    endloop
  endfacet
  facet normal 0 0 1
    outer loop
      vertex -5.01848 5.57359 24
      vertex -7.33611 1.55934 24
      vertex -3.75 6.49519 24
    endloop
  endfacet
  facet normal 0 0 1
    outer loop
      vertex -6.06763 4.40839 24
      vertex -7.33611 1.55934 24
      vertex -5.01848 5.57359 24
    endloop
  endfacet
  facet normal 0 0 1
    outer loop
      vertex -6.85159 3.05052 24
      vertex -7.33611 1.55934 24
      vertex -6.06763 4.40839 24
    endloop
  endfacet
  facet normal 0 0 1
    outer loop
      vertex 6.06763 -4.40839 24
      vertex -1.5875 -1.5875 24
      vertex 5.01848 -5.57359 24
    endloop
  endfacet
  facet normal 0 0 1
    outer loop
      vertex 6.85159 3.05052 24
      vertex -7.33611 1.55934 24
      vertex -1.5875 1.5875 24
    endloop
  endfacet
  facet normal 0 0 1
    outer loop
      vertex 6.85159 3.05052 24
      vertex 1.5875 1.5875 24
      vertex 7.33611 1.55934 24
    endloop
  endfacet
  facet normal 0 0 1
    outer loop
      vertex 6.85159 3.05052 24
      vertex -1.5875 1.5875 24
      vertex 1.5875 1.5875 24
    endloop
  endfacet
  facet normal 0 0 1
    outer loop
      vertex 6.85159 -3.05052 24
      vertex 1.5875 -1.5875 24
      vertex 6.06763 -4.40839 24
    endloop
  endfacet
  facet normal 0 0 1
    outer loop
      vertex 1.5875 1.5875 24
      vertex 1.5875 -1.5875 24
      vertex 6.85159 -3.05052 24
    endloop
  endfacet
  facet normal 0 0 1
    outer loop
      vertex 1.5875 -1.5875 24
      vertex -1.5875 -1.5875 24
      vertex 6.06763 -4.40839 24
    endloop
  endfacet
  facet normal 0 0 1
    outer loop
      vertex -1.5875 -1.5875 24
      vertex -1.5875 1.5875 24
      vertex -7.33611 1.55934 24
    endloop
  endfacet
  facet normal 0 1 0
    outer loop
      vertex -0.783963 7.45891 6.0285
      vertex -0.783963 7.45891 24
      vertex -0.65 7.45891 6.12583
    endloop
  endfacet
  facet normal 0 1 0
    outer loop
      vertex -0.65 7.45891 6.12583
      vertex -0.783963 7.45891 24
      vertex 0.783963 7.45891 24
    endloop
  endfacet
  facet normal 0 1 0
    outer loop
      vertex 0.65 7.45891 6.12583
      vertex 0.783963 7.45891 24
      vertex 0.783963 7.45891 6.0285
    endloop
  endfacet
  facet normal 0 1 0
    outer loop
      vertex 0.401722 7.45891 6.23637
      vertex 0.783963 7.45891 24
      vertex 0.65 7.45891 6.12583
    endloop
  endfacet
  facet normal 0 1 0
    outer loop
      vertex 0.135887 7.45891 6.29288
      vertex 0.783963 7.45891 24
      vertex 0.401722 7.45891 6.23637
    endloop
  endfacet
  facet normal 0 1 0
    outer loop
      vertex -0.135887 7.45891 6.29288
      vertex 0.783963 7.45891 24
      vertex 0.135887 7.45891 6.29288
    endloop
  endfacet
  facet normal 0 1 0
    outer loop
      vertex -0.401722 7.45891 6.23637
      vertex 0.783963 7.45891 24
      vertex -0.135887 7.45891 6.29288
    endloop
  endfacet
  facet normal 0 1 0
    outer loop
      vertex -0.65 7.45891 6.12583
      vertex 0.783963 7.45891 24
      vertex -0.401722 7.45891 6.23637
    endloop
  endfacet
  facet normal -0.587785 1.79638e-16 -0.809017
    outer loop
      vertex 0.783963 7.45891 6.0285
      vertex 0.86987 7.44065 5.96609
      vertex 0.65 7.45891 6.12583
    endloop
  endfacet
  facet normal -0.587785 1.79638e-16 -0.809017
    outer loop
      vertex 0.65 7.45891 6.12583
      vertex 0.86987 7.44065 5.96609
      vertex 0.86987 2 5.96609
    endloop
  endfacet
  facet normal -0.587785 1.79638e-16 -0.809017
    outer loop
      vertex 0.65 7.45891 6.12583
      vertex 0.86987 2 5.96609
      vertex 0.65 2 6.12583
    endloop
  endfacet
  facet normal -0.743145 1.48577e-16 -0.669131
    outer loop
      vertex 1.05172 7.402 5.76412
      vertex 1.05172 2 5.76412
      vertex 0.86987 7.44065 5.96609
    endloop
  endfacet
  facet normal -0.743145 1.48577e-16 -0.669131
    outer loop
      vertex 0.86987 7.44065 5.96609
      vertex 1.05172 2 5.76412
      vertex 0.86987 2 5.96609
    endloop
  endfacet
  facet normal -0.866025 1.11022e-16 -0.5
    outer loop
      vertex 1.18761 7.37312 5.52876
      vertex 1.18761 2 5.52876
      vertex 1.05172 7.402 5.76412
    endloop
  endfacet
  facet normal -0.866025 1.11022e-16 -0.5
    outer loop
      vertex 1.05172 7.402 5.76412
      vertex 1.18761 2 5.52876
      vertex 1.05172 2 5.76412
    endloop
  endfacet
  facet normal -0.951056 6.86156e-17 -0.309017
    outer loop
      vertex 1.27159 7.35527 5.27029
      vertex 1.27159 2 5.27029
      vertex 1.18761 7.37312 5.52876
    endloop
  endfacet
  facet normal -0.951056 6.86156e-17 -0.309017
    outer loop
      vertex 1.18761 7.37312 5.52876
      vertex 1.27159 2 5.27029
      vertex 1.18761 2 5.52876
    endloop
  endfacet
  facet normal -0.994522 2.32099e-17 -0.104528
    outer loop
      vertex 1.3 7.34923 5
      vertex 1.3 2 5
      vertex 1.27159 7.35527 5.27029
    endloop
  endfacet
  facet normal -0.994522 2.32099e-17 -0.104528
    outer loop
      vertex 1.27159 7.35527 5.27029
      vertex 1.3 2 5
      vertex 1.27159 2 5.27029
    endloop
  endfacet
  facet normal -0.994522 -2.32099e-17 0.104528
    outer loop
      vertex 1.3 7.34923 5
      vertex 1.27159 7.35527 4.72972
      vertex 1.3 2 5
    endloop
  endfacet
  facet normal -0.994522 -2.32099e-17 0.104528
    outer loop
      vertex 1.3 2 5
      vertex 1.27159 7.35527 4.72972
      vertex 1.27159 2 4.72971
    endloop
  endfacet
  facet normal -0.951056 -6.86156e-17 0.309017
    outer loop
      vertex 1.27159 7.35527 4.72972
      vertex 1.18761 7.37312 4.47124
      vertex 1.27159 2 4.72971
    endloop
  endfacet
  facet normal -0.951056 -6.86156e-17 0.309017
    outer loop
      vertex 1.27159 2 4.72971
      vertex 1.18761 7.37312 4.47124
      vertex 1.18761 2 4.47124
    endloop
  endfacet
  facet normal -0.866025 -1.11022e-16 0.5
    outer loop
      vertex 1.18761 7.37312 4.47124
      vertex 1.05172 7.402 4.23588
      vertex 1.18761 2 4.47124
    endloop
  endfacet
  facet normal -0.866025 -1.11022e-16 0.5
    outer loop
      vertex 1.18761 2 4.47124
      vertex 1.05172 7.402 4.23588
      vertex 1.05172 2 4.23588
    endloop
  endfacet
  facet normal -0.743145 -1.48577e-16 0.669131
    outer loop
      vertex 1.05172 7.402 4.23588
      vertex 0.86987 7.44065 4.03391
      vertex 1.05172 2 4.23588
    endloop
  endfacet
  facet normal -0.743145 -1.48577e-16 0.669131
    outer loop
      vertex 1.05172 2 4.23588
      vertex 0.86987 7.44065 4.03391
      vertex 0.86987 2 4.03391
    endloop
  endfacet
  facet normal -0.587785 -1.79638e-16 0.809017
    outer loop
      vertex 0.86987 2 4.03391
      vertex 0.86987 7.44065 4.03391
      vertex 0.783963 7.45891 3.9715
    endloop
  endfacet
  facet normal -0.587785 -1.79638e-16 0.809017
    outer loop
      vertex 0.65 2 3.87417
      vertex 0.86987 2 4.03391
      vertex 0.65 7.45891 3.87417
    endloop
  endfacet
  facet normal -0.587785 -1.79638e-16 0.809017
    outer loop
      vertex 0.65 7.45891 3.87417
      vertex 0.86987 2 4.03391
      vertex 0.783963 7.45891 3.9715
    endloop
  endfacet
  facet normal -0.406735 -2.02848e-16 0.913546
    outer loop
      vertex 0.65 2 3.87417
      vertex 0.65 7.45891 3.87417
      vertex 0.401722 7.45891 3.76363
    endloop
  endfacet
  facet normal -0.406735 -2.02848e-16 0.913546
    outer loop
      vertex 0.401722 2 3.76363
      vertex 0.65 2 3.87417
      vertex 0.401722 7.45891 3.76363
    endloop
  endfacet
  facet normal -0.207912 -2.17192e-16 0.978148
    outer loop
      vertex 0.401722 2 3.76363
      vertex 0.401722 7.45891 3.76363
      vertex 0.135887 7.45891 3.70712
    endloop
  endfacet
  facet normal -0.207912 -2.17192e-16 0.978148
    outer loop
      vertex 0.135887 2 3.70712
      vertex 0.401722 2 3.76363
      vertex 0.135887 7.45891 3.70712
    endloop
  endfacet
  facet normal 0 -2.22045e-16 1
    outer loop
      vertex 0.135887 2 3.70712
      vertex 0.135887 7.45891 3.70712
      vertex -0.135887 7.45891 3.70712
    endloop
  endfacet
  facet normal 0 -2.22045e-16 1
    outer loop
      vertex -0.135887 2 3.70712
      vertex 0.135887 2 3.70712
      vertex -0.135887 7.45891 3.70712
    endloop
  endfacet
  facet normal 0.207912 -2.17192e-16 0.978148
    outer loop
      vertex -0.135887 2 3.70712
      vertex -0.135887 7.45891 3.70712
      vertex -0.401722 7.45891 3.76363
    endloop
  endfacet
  facet normal 0.207912 -2.17192e-16 0.978148
    outer loop
      vertex -0.401722 2 3.76363
      vertex -0.135887 2 3.70712
      vertex -0.401722 7.45891 3.76363
    endloop
  endfacet
  facet normal 0.406735 -2.02848e-16 0.913546
    outer loop
      vertex -0.401722 2 3.76363
      vertex -0.401722 7.45891 3.76363
      vertex -0.65 7.45891 3.87417
    endloop
  endfacet
  facet normal 0.406735 -2.02848e-16 0.913546
    outer loop
      vertex -0.65 2 3.87417
      vertex -0.401722 2 3.76363
      vertex -0.65 7.45891 3.87417
    endloop
  endfacet
  facet normal 0.587785 -1.79638e-16 0.809017
    outer loop
      vertex -0.65 2 3.87417
      vertex -0.65 7.45891 3.87417
      vertex -0.783963 7.45891 3.9715
    endloop
  endfacet
  facet normal 0.587785 -1.79638e-16 0.809017
    outer loop
      vertex -0.86987 2 4.03391
      vertex -0.65 2 3.87417
      vertex -0.86987 7.44065 4.03391
    endloop
  endfacet
  facet normal 0.587785 -1.79638e-16 0.809017
    outer loop
      vertex -0.86987 7.44065 4.03391
      vertex -0.65 2 3.87417
      vertex -0.783963 7.45891 3.9715
    endloop
  endfacet
  facet normal 0.743145 -1.48577e-16 0.669131
    outer loop
      vertex -0.86987 2 4.03391
      vertex -0.86987 7.44065 4.03391
      vertex -1.05172 7.402 4.23588
    endloop
  endfacet
  facet normal 0.743145 -1.48577e-16 0.669131
    outer loop
      vertex -1.05172 2 4.23588
      vertex -0.86987 2 4.03391
      vertex -1.05172 7.402 4.23588
    endloop
  endfacet
  facet normal 0.866025 -1.11022e-16 0.5
    outer loop
      vertex -1.05172 2 4.23588
      vertex -1.05172 7.402 4.23588
      vertex -1.18761 7.37312 4.47124
    endloop
  endfacet
  facet normal 0.866025 -1.11022e-16 0.5
    outer loop
      vertex -1.18761 2 4.47124
      vertex -1.05172 2 4.23588
      vertex -1.18761 7.37312 4.47124
    endloop
  endfacet
  facet normal 0.951056 -6.86156e-17 0.309017
    outer loop
      vertex -1.18761 2 4.47124
      vertex -1.18761 7.37312 4.47124
      vertex -1.27159 7.35527 4.72972
    endloop
  endfacet
  facet normal 0.951056 -6.86156e-17 0.309017
    outer loop
      vertex -1.27159 2 4.72971
      vertex -1.18761 2 4.47124
      vertex -1.27159 7.35527 4.72972
    endloop
  endfacet
  facet normal 0.994522 -2.32099e-17 0.104528
    outer loop
      vertex -1.27159 2 4.72971
      vertex -1.27159 7.35527 4.72972
      vertex -1.3 7.34923 5
    endloop
  endfacet
  facet normal 0.994522 -2.32099e-17 0.104528
    outer loop
      vertex -1.3 2 5
      vertex -1.27159 2 4.72971
      vertex -1.3 7.34923 5
    endloop
  endfacet
  facet normal 0.994522 2.32099e-17 -0.104528
    outer loop
      vertex -1.3 7.34923 5
      vertex -1.27159 7.35527 5.27029
      vertex -1.27159 2 5.27029
    endloop
  endfacet
  facet normal 0.994522 2.32099e-17 -0.104528
    outer loop
      vertex -1.3 2 5
      vertex -1.3 7.34923 5
      vertex -1.27159 2 5.27029
    endloop
  endfacet
  facet normal 0.951056 6.86156e-17 -0.309017
    outer loop
      vertex -1.27159 7.35527 5.27029
      vertex -1.18761 7.37312 5.52876
      vertex -1.18761 2 5.52876
    endloop
  endfacet
  facet normal 0.951056 6.86156e-17 -0.309017
    outer loop
      vertex -1.27159 2 5.27029
      vertex -1.27159 7.35527 5.27029
      vertex -1.18761 2 5.52876
    endloop
  endfacet
  facet normal 0.866025 1.11022e-16 -0.5
    outer loop
      vertex -1.18761 7.37312 5.52876
      vertex -1.05172 7.402 5.76412
      vertex -1.05172 2 5.76412
    endloop
  endfacet
  facet normal 0.866025 1.11022e-16 -0.5
    outer loop
      vertex -1.18761 2 5.52876
      vertex -1.18761 7.37312 5.52876
      vertex -1.05172 2 5.76412
    endloop
  endfacet
  facet normal 0.743145 1.48577e-16 -0.669131
    outer loop
      vertex -1.05172 7.402 5.76412
      vertex -0.86987 7.44065 5.96609
      vertex -0.86987 2 5.96609
    endloop
  endfacet
  facet normal 0.743145 1.48577e-16 -0.669131
    outer loop
      vertex -1.05172 2 5.76412
      vertex -1.05172 7.402 5.76412
      vertex -0.86987 2 5.96609
    endloop
  endfacet
  facet normal 0.587785 1.79638e-16 -0.809017
    outer loop
      vertex -0.783963 7.45891 6.0285
      vertex -0.65 7.45891 6.12583
      vertex -0.86987 7.44065 5.96609
    endloop
  endfacet
  facet normal 0.587785 1.79638e-16 -0.809017
    outer loop
      vertex -0.86987 7.44065 5.96609
      vertex -0.65 7.45891 6.12583
      vertex -0.65 2 6.12583
    endloop
  endfacet
  facet normal 0.587785 1.79638e-16 -0.809017
    outer loop
      vertex -0.86987 7.44065 5.96609
      vertex -0.65 2 6.12583
      vertex -0.86987 2 5.96609
    endloop
  endfacet
  facet normal 0 0 -1
    outer loop
      vertex -2.37924 2 11
      vertex 2.37924 2 11
      vertex -2.77633 1.60291 11
    endloop
  endfacet
  facet normal 0 0 -1
    outer loop
      vertex -2.77633 1.60291 11
      vertex 2.37924 2 11
      vertex 2.77633 1.60291 11
    endloop
  endfacet
  facet normal 0 0 -1
    outer loop
      vertex 1.5875 1.5875 11
      vertex 2.77633 1.60291 11
      vertex 3.20583 0 11
    endloop
  endfacet
  facet normal 0 0 -1
    outer loop
      vertex 1.5875 -1.5875 11
      vertex 2.77633 -1.60291 11
      vertex 1.60291 -2.77633 11
    endloop
  endfacet
  facet normal 0 0 -1
    outer loop
      vertex 1.5875 -1.5875 11
      vertex 0 -3.20583 11
      vertex -1.5875 -1.5875 11
    endloop
  endfacet
  facet normal 0 0 -1
    outer loop
      vertex -1.5875 -1.5875 11
      vertex 0 -3.20583 11
      vertex -1.60291 -2.77633 11
    endloop
  endfacet
  facet normal 0 0 -1
    outer loop
      vertex -2.77633 1.60291 11
      vertex -1.60291 -2.77633 11
      vertex -2.77633 -1.60291 11
    endloop
  endfacet
  facet normal 0 0 -1
    outer loop
      vertex -2.77633 1.60291 11
      vertex -2.77633 -1.60291 11
      vertex -3.20583 0 11
    endloop
  endfacet
  facet normal 0 0 -1
    outer loop
      vertex 1.5875 -1.5875 11
      vertex 1.60291 -2.77633 11
      vertex 0 -3.20583 11
    endloop
  endfacet
  facet normal 0 0 -1
    outer loop
      vertex -2.77633 1.60291 11
      vertex -1.5875 -1.5875 11
      vertex -1.60291 -2.77633 11
    endloop
  endfacet
  facet normal 0 0 -1
    outer loop
      vertex -2.77633 1.60291 11
      vertex 2.77633 1.60291 11
      vertex 1.5875 1.5875 11
    endloop
  endfacet
  facet normal 0 0 -1
    outer loop
      vertex -2.77633 1.60291 11
      vertex 1.5875 1.5875 11
      vertex -1.5875 1.5875 11
    endloop
  endfacet
  facet normal 0 0 -1
    outer loop
      vertex -1.5875 -1.5875 11
      vertex -2.77633 1.60291 11
      vertex -1.5875 1.5875 11
    endloop
  endfacet
  facet normal 0 0 -1
    outer loop
      vertex 1.5875 1.5875 11
      vertex 3.20583 0 11
      vertex 2.77633 -1.60291 11
    endloop
  endfacet
  facet normal 0 0 -1
    outer loop
      vertex 1.5875 1.5875 11
      vertex 2.77633 -1.60291 11
      vertex 1.5875 -1.5875 11
    endloop
  endfacet
  facet normal -0.406735 2.02848e-16 -0.913546
    outer loop
      vertex 0.65 7.45891 6.12583
      vertex 0.65 2 6.12583
      vertex 0.401722 7.45891 6.23637
    endloop
  endfacet
  facet normal -0.406735 2.02848e-16 -0.913546
    outer loop
      vertex 0.401722 7.45891 6.23637
      vertex 0.65 2 6.12583
      vertex 0.401722 2 6.23637
    endloop
  endfacet
  facet normal -0.207912 2.17192e-16 -0.978148
    outer loop
      vertex 0.401722 7.45891 6.23637
      vertex 0.401722 2 6.23637
      vertex 0.135887 7.45891 6.29288
    endloop
  endfacet
  facet normal -0.207912 2.17192e-16 -0.978148
    outer loop
      vertex 0.135887 7.45891 6.29288
      vertex 0.401722 2 6.23637
      vertex 0.135887 2 6.29288
    endloop
  endfacet
  facet normal 0 2.22045e-16 -1
    outer loop
      vertex 0.135887 7.45891 6.29288
      vertex 0.135887 2 6.29288
      vertex -0.135887 7.45891 6.29288
    endloop
  endfacet
  facet normal 0 2.22045e-16 -1
    outer loop
      vertex -0.135887 7.45891 6.29288
      vertex 0.135887 2 6.29288
      vertex -0.135887 2 6.29288
    endloop
  endfacet
  facet normal 0.207912 2.17192e-16 -0.978148
    outer loop
      vertex -0.135887 7.45891 6.29288
      vertex -0.135887 2 6.29288
      vertex -0.401722 7.45891 6.23637
    endloop
  endfacet
  facet normal 0.207912 2.17192e-16 -0.978148
    outer loop
      vertex -0.401722 7.45891 6.23637
      vertex -0.135887 2 6.29288
      vertex -0.401722 2 6.23637
    endloop
  endfacet
  facet normal 0.406735 2.02848e-16 -0.913546
    outer loop
      vertex -0.401722 7.45891 6.23637
      vertex -0.401722 2 6.23637
      vertex -0.65 7.45891 6.12583
    endloop
  endfacet
  facet normal 0.406735 2.02848e-16 -0.913546
    outer loop
      vertex -0.65 7.45891 6.12583
      vertex -0.401722 2 6.23637
      vertex -0.65 2 6.12583
    endloop
  endfacet
  facet normal 1 0 0
    outer loop
      vertex -1.5875 1.5875 11
      vertex -1.5875 1.5875 24
      vertex -1.5875 -1.5875 24
    endloop
  endfacet
  facet normal 1 0 0
    outer loop
      vertex -1.5875 -1.5875 11
      vertex -1.5875 1.5875 11
      vertex -1.5875 -1.5875 24
    endloop
  endfacet
  facet normal 0 1 0
    outer loop
      vertex 1.5875 -1.5875 24
      vertex 1.5875 -1.5875 11
      vertex -1.5875 -1.5875 24
    endloop
  endfacet
  facet normal 0 1 0
    outer loop
      vertex -1.5875 -1.5875 24
      vertex 1.5875 -1.5875 11
      vertex -1.5875 -1.5875 11
    endloop
  endfacet
  facet normal -1 0 0
    outer loop
      vertex 1.5875 1.5875 24
      vertex 1.5875 1.5875 11
      vertex 1.5875 -1.5875 24
    endloop
  endfacet
  facet normal -1 0 0
    outer loop
      vertex 1.5875 -1.5875 24
      vertex 1.5875 1.5875 11
      vertex 1.5875 -1.5875 11
    endloop
  endfacet
  facet normal 0 -1 0
    outer loop
      vertex 1.5875 1.5875 11
      vertex 1.5875 1.5875 24
      vertex -1.5875 1.5875 24
    endloop
  endfacet
  facet normal 0 -1 0
    outer loop
      vertex -1.5875 1.5875 11
      vertex 1.5875 1.5875 11
      vertex -1.5875 1.5875 24
    endloop
  endfacet
endsolid OpenSCAD_Model
